<svg width="19" height="24" viewBox="0 0 19 24" fill="none" xmlns="http://www.w3.org/2000/svg">
<path d="M18.5742 17.5125V23.8306L0.509983 23.8628V23.347C1.54038 22.6701 2.05559 21.284 2.05559 19.1887L2.02339 4.84418C2.02339 2.74891 1.50818 1.36281 0.477783 0.685873V0.170114L17.7048 0.137878V6.45593H17.1896C16.5134 4.94089 15.5796 3.68372 14.3882 2.74891C13.1646 1.8141 11.78 1.33057 10.1378 1.33057H8.1736L8.2058 11.3234L9.7514 11.1945C10.7818 11.0978 11.619 10.7432 12.2308 10.1307C12.8748 9.51825 13.4222 8.68014 13.9374 7.64862H14.4526L14.4848 15.9008H13.9696C13.4222 14.9015 12.8426 14.0956 12.2308 13.4509C11.619 12.8385 10.7818 12.4839 9.7514 12.3872L8.2058 12.2582L8.238 19.221C8.238 20.4459 8.4634 21.3162 8.9142 21.8642C9.365 22.4122 10.0734 22.6701 11.0394 22.6701H11.1038C12.6816 22.6701 14.0984 22.1866 15.2898 21.2195C16.4812 20.2525 17.415 19.0276 18.059 17.5125H18.5742Z" fill="white"/>
</svg>
