<svg width="20" height="21" viewBox="0 0 20 21" fill="none" xmlns="http://www.w3.org/2000/svg">
<path fill-rule="evenodd" clip-rule="evenodd" d="M13.7071 7.79289C14.0976 8.18342 14.0976 8.81658 13.7071 9.20711L9.70711 13.2071C9.31658 13.5976 8.68342 13.5976 8.29289 13.2071L6.29289 11.2071C5.90237 10.8166 5.90237 10.1834 6.29289 9.79289C6.68342 9.40237 7.31658 9.40237 7.70711 9.79289L9 11.0858L12.2929 7.79289C12.6834 7.40237 13.3166 7.40237 13.7071 7.79289Z" fill="#1C8C64"/>
<path fill-rule="evenodd" clip-rule="evenodd" d="M10 2.5C5.58172 2.5 2 6.08172 2 10.5C2 14.9183 5.58172 18.5 10 18.5C14.4183 18.5 18 14.9183 18 10.5C18 6.08172 14.4183 2.5 10 2.5ZM0 10.5C0 4.97715 4.47715 0.5 10 0.5C15.5228 0.5 20 4.97715 20 10.5C20 16.0228 15.5228 20.5 10 20.5C4.47715 20.5 0 16.0228 0 10.5Z" fill="#1C8C64"/>
</svg>
