<svg width="25" height="26" viewBox="0 0 25 26" fill="none" xmlns="http://www.w3.org/2000/svg">
<path fill-rule="evenodd" clip-rule="evenodd" d="M4.40531 1.90531C4.98496 1.32565 5.77115 1 6.59091 1H19.3182C20.1379 1 20.9241 1.32565 21.5038 1.90531C22.0834 2.48496 22.4091 3.27115 22.4091 4.09091V5.36364C22.4091 5.66488 22.1649 5.90909 21.8636 5.90909C21.5624 5.90909 21.3182 5.66488 21.3182 5.36364V4.09091C21.3182 3.56048 21.1075 3.05177 20.7324 2.6767C20.3573 2.30162 19.8486 2.09091 19.3182 2.09091H6.59091C6.06048 2.09091 5.55177 2.30162 5.1767 2.6767C4.80162 3.05177 4.59091 3.56048 4.59091 4.09091V21.9091C4.59091 22.4395 4.80162 22.9482 5.1767 23.3233C5.55177 23.6984 6.06048 23.9091 6.59091 23.9091H19.3182C19.8486 23.9091 20.3573 23.6984 20.7324 23.3233C21.1075 22.9482 21.3182 22.4395 21.3182 21.9091V20.6364C21.3182 20.3351 21.5624 20.0909 21.8636 20.0909C22.1649 20.0909 22.4091 20.3351 22.4091 20.6364V21.9091C22.4091 22.7289 22.0834 23.515 21.5038 24.0947C20.9241 24.6744 20.1379 25 19.3182 25H6.59091C5.77115 25 4.98496 24.6744 4.40531 24.0947C3.82565 23.515 3.5 22.7289 3.5 21.9091V4.09091C3.5 3.27115 3.82565 2.48496 4.40531 1.90531ZM17.6598 8.79612C17.8728 8.58311 18.2181 8.58311 18.4311 8.79612L22.2493 12.6143C22.2996 12.6645 22.3401 12.7245 22.3677 12.7912C22.391 12.8473 22.4051 12.9082 22.4084 12.9719C22.4089 12.9812 22.4091 12.9906 22.4091 13C22.4091 13.074 22.3944 13.1445 22.3677 13.2088C22.3411 13.2731 22.3016 13.3334 22.2493 13.3857L18.4311 17.2039C18.2181 17.4169 17.8728 17.4169 17.6598 17.2039C17.4467 16.9909 17.4467 16.6455 17.6598 16.4325L20.5468 13.5455H12.9545C12.6533 13.5455 12.4091 13.3012 12.4091 13C12.4091 12.6988 12.6533 12.4545 12.9545 12.4545H20.5468L17.6598 9.56751C17.4467 9.3545 17.4467 9.00914 17.6598 8.79612Z" fill="#2D2D2D" stroke="#2D2D2D" stroke-width="0.4" stroke-linecap="round" stroke-linejoin="round"/>
</svg>
