<?xml version="1.0" encoding="UTF-8" standalone="no" ?>
<!DOCTYPE svg PUBLIC "-//W3C//DTD SVG 1.1//EN" "http://www.w3.org/Graphics/SVG/1.1/DTD/svg11.dtd">
<svg xmlns="http://www.w3.org/2000/svg" xmlns:xlink="http://www.w3.org/1999/xlink" version="1.1" width="400" height="400" viewBox="0 0 400 400" xml:space="preserve">
<desc>Created with Fabric.js 3.6.2</desc>
<defs>
</defs>
<g transform="matrix(1.56 0 0 1.56 200.01 200)" id="Layer_1"  >
<path style="stroke: none; stroke-width: 1; stroke-dasharray: none; stroke-linecap: butt; stroke-dashoffset: 0; stroke-linejoin: miter; stroke-miterlimit: 4; fill: rgb(6,43,49); fill-rule: nonzero; opacity: 1;"  transform=" translate(-64.01, -64)" d="M 106.09 20.5 a 1.41 1.41 0 0 1 1.41 1.41 v 84.19 a 1.41 1.41 0 0 1 -1.41 1.41 H 21.91 a 1.41 1.41 0 0 1 -1.41 -1.41 V 21.91 a 1.41 1.41 0 0 1 1.41 -1.41 h 84.19 m 0 -6.5 H 21.91 A 7.91 7.91 0 0 0 14 21.91 v 84.19 A 7.91 7.91 0 0 0 21.91 114 h 84.19 a 7.91 7.91 0 0 0 7.91 -7.91 V 21.91 A 7.91 7.91 0 0 0 106.09 14 Z" stroke-linecap="round" />
</g>
<g transform="matrix(1.56 0 0 1.56 167.4 211.35)" id="Layer_1"  >
<rect style="stroke: none; stroke-width: 1; stroke-dasharray: none; stroke-linecap: butt; stroke-dashoffset: 0; stroke-linejoin: miter; stroke-miterlimit: 4; fill: rgb(6,43,49); fill-rule: nonzero; opacity: 1;"  x="-5.865" y="-20.865" rx="0" ry="0" width="11.73" height="41.73" />
</g>
<g transform="matrix(1.56 0 0 1.56 213.85 211.39)" id="Layer_1"  >
<path style="stroke: none; stroke-width: 1; stroke-dasharray: none; stroke-linecap: butt; stroke-dashoffset: 0; stroke-linejoin: miter; stroke-miterlimit: 4; fill: rgb(6,43,49); fill-rule: nonzero; opacity: 1;"  transform=" translate(-72.87, -71.29)" d="M 77.23 50.4 C 67.18 50.4 67 56.21 67 56.61 V 50.4 H 55 V 92.13 H 67 V 68.31 c 0 -1.86 0.55 -5.86 6.23 -5.86 s 5.63 5.73 5.63 5.73 v 24 H 90.73 v -26 C 90.73 53.85 84 50.4 77.23 50.4 Z" stroke-linecap="round" />
</g>
<g transform="matrix(1.56 0 0 1.56 167.39 165.2)" id="Layer_1"  >
<circle style="stroke: none; stroke-width: 1; stroke-dasharray: none; stroke-linecap: butt; stroke-dashoffset: 0; stroke-linejoin: miter; stroke-miterlimit: 4; fill: rgb(6,43,49); fill-rule: nonzero; opacity: 1;"  cx="0" cy="0" r="5.86" />
</g>
</svg>