<svg width="20" height="24" viewBox="0 0 20 24" fill="none" xmlns="http://www.w3.org/2000/svg">
<path d="M19.3558 15.8106L19.388 23.9016L0.583225 23.9338V23.418C1.61363 22.7411 2.12883 21.355 2.12883 19.2597L2.09663 4.91517C2.09663 2.81989 1.58143 1.43379 0.551025 0.756856V0.241097L9.79244 0.208862V0.724621C8.76203 1.46603 8.24683 2.85213 8.24683 4.88293L8.27903 19.2597C8.27903 20.5169 8.53663 21.3872 9.05184 21.903C9.56704 22.4188 10.4042 22.6766 11.5634 22.6766H11.66C13.4954 22.6766 15.0088 22.0319 16.2324 20.7748C17.456 19.5176 18.3254 17.8414 18.8406 15.7784L19.3558 15.8106Z" fill="white"/>
</svg>
