<svg width="17" height="18" viewBox="0 0 17 18" fill="none" xmlns="http://www.w3.org/2000/svg">
<path fill-rule="evenodd" clip-rule="evenodd" d="M11.5635 11.1743L15.3744 15.2093C15.5083 15.3512 15.5835 15.5437 15.5835 15.7443C15.5834 15.945 15.5081 16.1374 15.374 16.2792C15.24 16.421 15.0582 16.5006 14.8687 16.5006C14.6792 16.5005 14.4975 16.4207 14.3636 16.2788L10.5527 12.2438C9.41354 13.1781 7.98099 13.6177 6.5465 13.4733C5.11202 13.3289 3.78337 12.6113 2.83084 11.4665C1.87831 10.3217 1.37345 8.83566 1.41897 7.31071C1.46449 5.78576 2.05696 4.33645 3.07587 3.25761C4.09477 2.17877 5.46357 1.55144 6.9038 1.50324C8.34403 1.45505 9.74751 1.9896 10.8287 2.99816C11.9099 4.00673 12.5877 5.41353 12.724 6.9324C12.8604 8.45126 12.4452 9.96809 11.5628 11.1743H11.5635ZM7.08333 12.0001C8.2105 12.0001 9.29151 11.5259 10.0885 10.682C10.8856 9.83812 11.3333 8.69353 11.3333 7.50005C11.3333 6.30658 10.8856 5.16199 10.0885 4.31807C9.29151 3.47416 8.2105 3.00005 7.08333 3.00005C5.95616 3.00005 4.87516 3.47416 4.07813 4.31807C3.2811 5.16199 2.83333 6.30658 2.83333 7.50005C2.83333 8.69353 3.2811 9.83812 4.07813 10.682C4.87516 11.5259 5.95616 12.0001 7.08333 12.0001Z" fill="#E7E7E7"/>
</svg>
