<svg width="27" height="24" viewBox="0 0 27 24" fill="none" xmlns="http://www.w3.org/2000/svg">
<path d="M21.0585 17.95L15.8099 9.9557L18.3859 6.02304C20.2535 3.2186 22.3143 1.3812 24.5361 0.57533V0.0595703L16.5505 0.0918054V0.607565C17.1945 1.25226 17.5165 2.15484 17.5165 3.28307C17.5487 4.41129 17.2911 5.41057 16.8081 6.28092L15.2625 9.18206L13.1051 5.92633C11.6239 3.63765 11.4951 1.86473 12.7509 0.607565V0.0918054L0.965637 0.12404V0.639799C1.51304 0.865444 2.09264 1.31673 2.70444 1.9292C3.31624 2.5739 3.79924 3.15413 4.21784 3.66989C4.60424 4.21788 5.11945 4.95928 5.76345 5.92633L13.5881 17.7888C14.3287 18.917 14.7795 19.9485 14.8761 20.9478C14.9727 21.9149 14.7151 22.6885 14.0711 23.2687V23.7845L26.1783 23.7523V23.2365C24.6327 22.5273 22.9261 20.7866 21.0585 17.95Z" fill="white"/>
</svg>
