<svg width="178" height="25" viewBox="0 0 178 25" fill="none" xmlns="http://www.w3.org/2000/svg">
<path fill-rule="evenodd" clip-rule="evenodd" d="M131.518 6.0576C131.331 6.0576 131.146 6.09443 130.973 6.16599C130.801 6.23756 130.644 6.34245 130.512 6.47467L120.144 16.8422L119.389 19.6112L122.158 18.856L132.525 8.48849C132.658 8.35626 132.762 8.19928 132.834 8.02651C132.906 7.85375 132.942 7.66858 132.942 7.48158C132.942 7.29458 132.906 7.10941 132.834 6.93665C132.762 6.76388 132.658 6.6069 132.525 6.47467C132.393 6.34245 132.236 6.23756 132.063 6.16599C131.891 6.09443 131.705 6.0576 131.518 6.0576ZM130.377 4.72696C130.739 4.57712 131.127 4.5 131.518 4.5C131.91 4.5 132.298 4.57712 132.659 4.72696C133.021 4.8768 133.35 5.09642 133.627 5.37328C133.904 5.65015 134.123 5.97884 134.273 6.34058C134.423 6.70232 134.5 7.09004 134.5 7.48158C134.5 7.87312 134.423 8.26084 134.273 8.62258C134.123 8.98432 133.904 9.31301 133.627 9.58988L123.113 20.1037C123.017 20.1995 122.898 20.2687 122.767 20.3043L118.484 21.4725C118.214 21.5461 117.926 21.4695 117.728 21.2719C117.531 21.0743 117.454 20.7859 117.527 20.5163L118.696 16.2329C118.731 16.1021 118.8 15.9829 118.896 15.8871L129.41 5.37328C129.687 5.09642 130.016 4.8768 130.377 4.72696Z" fill="#2D2D2D"/>
<path d="M158.036 17.736L158.028 19H150.964V7.536H158.028V8.8H152.516V12.608H156.98V13.824H152.516V17.736H158.036ZM164.799 12.824C164.532 12.4667 164.244 12.2187 163.935 12.08C163.625 11.936 163.279 11.864 162.895 11.864C162.143 11.864 161.564 12.1333 161.159 12.672C160.753 13.2107 160.551 13.9787 160.551 14.976C160.551 15.504 160.596 15.9573 160.687 16.336C160.777 16.7093 160.911 17.0187 161.087 17.264C161.263 17.504 161.479 17.68 161.735 17.792C161.991 17.904 162.281 17.96 162.607 17.96C163.076 17.96 163.484 17.8533 163.831 17.64C164.183 17.4267 164.505 17.1253 164.799 16.736V12.824ZM166.223 7.216V19H165.375C165.172 19 165.044 18.9013 164.991 18.704L164.863 17.72C164.516 18.136 164.121 18.472 163.679 18.728C163.236 18.984 162.724 19.112 162.143 19.112C161.679 19.112 161.257 19.024 160.879 18.848C160.5 18.6667 160.177 18.4027 159.911 18.056C159.644 17.7093 159.439 17.2773 159.295 16.76C159.151 16.2427 159.079 15.648 159.079 14.976C159.079 14.3787 159.159 13.824 159.319 13.312C159.479 12.7947 159.708 12.3467 160.007 11.968C160.305 11.5893 160.671 11.2933 161.103 11.08C161.54 10.8613 162.031 10.752 162.575 10.752C163.071 10.752 163.495 10.8373 163.847 11.008C164.204 11.1733 164.521 11.4053 164.799 11.704V7.216H166.223ZM169.976 10.896V19H168.552V10.896H169.976ZM170.28 8.352C170.28 8.49067 170.25 8.62133 170.192 8.744C170.138 8.86133 170.064 8.968 169.968 9.064C169.877 9.15467 169.768 9.22667 169.64 9.28C169.517 9.33333 169.386 9.36 169.248 9.36C169.109 9.36 168.978 9.33333 168.856 9.28C168.738 9.22667 168.634 9.15467 168.544 9.064C168.453 8.968 168.381 8.86133 168.328 8.744C168.274 8.62133 168.248 8.49067 168.248 8.352C168.248 8.21333 168.274 8.08267 168.328 7.96C168.381 7.832 168.453 7.72267 168.544 7.632C168.634 7.536 168.738 7.46133 168.856 7.408C168.978 7.35467 169.109 7.328 169.248 7.328C169.386 7.328 169.517 7.35467 169.64 7.408C169.768 7.46133 169.877 7.536 169.968 7.632C170.064 7.72267 170.138 7.832 170.192 7.96C170.25 8.08267 170.28 8.21333 170.28 8.352ZM174.804 19.128C174.164 19.128 173.67 18.9493 173.324 18.592C172.982 18.2347 172.812 17.72 172.812 17.048V12.088H171.836C171.75 12.088 171.678 12.064 171.62 12.016C171.561 11.9627 171.532 11.8827 171.532 11.776V11.208L172.86 11.04L173.188 8.536C173.204 8.456 173.238 8.392 173.292 8.344C173.35 8.29067 173.425 8.264 173.516 8.264H174.236V11.056H176.58V12.088H174.236V16.952C174.236 17.2933 174.318 17.5467 174.484 17.712C174.649 17.8773 174.862 17.96 175.124 17.96C175.273 17.96 175.401 17.9413 175.508 17.904C175.62 17.8613 175.716 17.816 175.796 17.768C175.876 17.72 175.942 17.6773 175.996 17.64C176.054 17.5973 176.105 17.576 176.148 17.576C176.222 17.576 176.289 17.6213 176.348 17.712L176.764 18.392C176.518 18.6213 176.222 18.8027 175.876 18.936C175.529 19.064 175.172 19.128 174.804 19.128Z" fill="#2D2D2D"/>
</svg>
