<svg width="23" height="24" viewBox="0 0 23 24" fill="none" xmlns="http://www.w3.org/2000/svg">
<path d="M15.4338 22.854C14.3068 22.0803 13.1476 20.8876 11.8918 19.1792C11.602 18.7924 11.3122 18.3733 11.0224 17.8898C10.7326 17.4063 10.4428 16.9872 10.2496 16.6326C10.0242 16.278 9.73435 15.7301 9.34795 14.9886C8.96155 14.2472 8.63955 13.6992 8.44635 13.3447V12.8611C11.5698 11.9908 13.1154 9.79882 13.1154 6.34968C13.1154 2.90054 11.6342 1.19208 8.67175 1.19208H7.89895L7.93115 19.018C7.93115 21.0488 8.44635 22.4349 9.47675 23.1763V23.6921L0.235325 23.7243V23.2086C1.26573 22.5639 1.78093 21.1778 1.78093 19.0503L1.74873 4.70569C1.74873 2.61042 1.23353 1.22432 0.203125 0.547384V0.0316247L9.95976 -0.000610352C16.4642 -0.000610352 19.7486 2.1269 19.7486 6.44638C19.7486 8.18707 19.2012 9.5087 18.1386 10.4758C17.076 11.4106 15.788 12.0553 14.2746 12.3454L15.7558 14.4407C18.4606 18.2444 20.8434 20.9521 22.872 22.4994L22.7432 23.0152C21.6806 23.6599 20.5536 23.9822 19.2978 23.9822C17.8166 24.0144 16.5608 23.6276 15.4338 22.854Z" fill="white"/>
</svg>
