<svg width="8" height="8" viewBox="0 0 8 8" fill="none" xmlns="http://www.w3.org/2000/svg">
<path d="M4 0C3.25832 0 2.5333 0.219934 1.91661 0.631989C1.29993 1.04404 0.819282 1.62971 0.535453 2.31494C0.251625 3.00016 0.177362 3.75416 0.322057 4.48159C0.466751 5.20902 0.823905 5.8772 1.34835 6.40165C1.8728 6.9261 2.54098 7.28325 3.26841 7.42795C3.99584 7.57264 4.74984 7.49838 5.43507 7.21455C6.12029 6.93072 6.70596 6.45007 7.11801 5.83339C7.53007 5.2167 7.75 4.49168 7.75 3.75C7.75 2.75544 7.35491 1.80161 6.65165 1.09835C5.94839 0.395088 4.99456 0 4 0ZM4 6C3.55499 6 3.11998 5.86804 2.74997 5.62081C2.37996 5.37357 2.09157 5.02217 1.92127 4.61104C1.75098 4.1999 1.70642 3.7475 1.79323 3.31105C1.88005 2.87459 2.09434 2.47368 2.40901 2.15901C2.72368 1.84434 3.12459 1.63005 3.56105 1.54323C3.99751 1.45642 4.44991 1.50097 4.86104 1.67127C5.27217 1.84157 5.62358 2.12996 5.87081 2.49997C6.11804 2.86998 6.25 3.30499 6.25 3.75C6.24941 4.34655 6.01216 4.9185 5.59033 5.34033C5.16851 5.76216 4.59656 5.9994 4 6Z" fill="#2D2D2D"/>
</svg>
